<?xml version="1.0" standalone="no"?>
<!DOCTYPE svg PUBLIC "-//W3C//DTD SVG 20010904//EN"
 "http://www.w3.org/TR/2001/REC-SVG-20010904/DTD/svg10.dtd">
<svg version="1.0" xmlns="http://www.w3.org/2000/svg"
 width="1200.000000pt" height="1200.000000pt" viewBox="0 0 1200.000000 1200.000000"
 preserveAspectRatio="xMidYMid meet">

<g transform="translate(0.000000,1200.000000) scale(0.100000,-0.100000)"
fill="#000000" stroke="none">
<path d="M1465 7624 c-453 -49 -802 -306 -933 -686 -33 -95 -36 -114 -40 -249
-7 -222 24 -347 123 -501 89 -136 241 -263 419 -347 215 -102 349 -144 666
-207 127 -26 244 -55 268 -67 86 -42 135 -122 136 -222 0 -83 -19 -130 -78
-193 -163 -173 -508 -212 -764 -86 -78 38 -106 59 -170 126 -189 198 -213 219
-264 243 -129 60 -296 0 -372 -135 -28 -50 -31 -63 -31 -145 0 -83 3 -96 36
-165 70 -146 201 -293 357 -399 121 -82 339 -179 487 -216 388 -99 791 -25
1086 197 187 141 314 342 356 563 22 113 13 315 -17 410 -35 113 -115 264
-181 343 -111 134 -290 246 -514 320 -66 22 -221 62 -345 87 -309 65 -434 111
-505 185 -28 29 -30 37 -30 108 0 62 5 88 27 134 82 177 329 275 600 239 119
-16 154 -30 272 -110 127 -86 236 -131 315 -131 200 0 309 163 237 353 -80
208 -292 388 -570 483 -146 50 -426 83 -571 68z"/>
<path d="M3332 7570 c-68 -35 -115 -82 -146 -149 l-21 -46 0 -1375 0 -1375 27
-50 c33 -63 89 -119 142 -144 23 -10 59 -27 81 -37 24 -11 71 -20 118 -22 68
-4 84 -1 132 23 30 14 70 45 90 68 64 74 65 87 65 607 0 323 4 477 11 500 20
55 45 60 336 60 364 0 482 21 660 115 388 205 577 633 468 1059 -24 91 -102
269 -154 349 -146 224 -380 382 -639 433 -58 11 -182 14 -591 14 l-518 0 -61
-30z m1180 -648 c91 -56 151 -165 151 -272 0 -133 -102 -280 -230 -331 -54
-22 -74 -24 -303 -27 -135 -2 -259 -1 -277 3 l-33 6 0 278 c0 181 4 289 11
311 20 57 40 60 359 57 277 -2 286 -3 322 -25z"/>
<path d="M5955 7588 c-50 -18 -107 -61 -142 -106 -67 -88 -64 -6 -61 -1503 l3
-1354 23 -45 c44 -86 101 -134 214 -179 82 -33 160 -40 230 -21 57 16 120 70
153 130 l30 55 0 1365 0 1365 -25 60 c-49 120 -99 180 -185 221 -40 19 -65 24
-130 23 -44 0 -93 -5 -110 -11z"/>
<path d="M7192 7570 c-68 -35 -115 -82 -146 -149 l-21 -46 0 -1375 0 -1375 27
-50 c33 -63 89 -119 142 -144 23 -10 59 -27 81 -37 24 -11 71 -20 118 -22 68
-4 84 -1 132 23 30 14 70 45 90 68 64 74 65 87 65 609 0 530 0 528 67 548 21
6 76 10 122 8 l85 -3 307 -545 c223 -396 319 -557 352 -591 32 -32 69 -56 133
-83 82 -36 93 -38 165 -34 59 4 86 10 120 30 93 55 142 138 142 243 0 87 -32
154 -291 612 -122 215 -222 402 -222 415 0 36 23 62 102 114 293 195 452 526
417 869 -12 119 -30 187 -85 317 -101 238 -246 401 -458 514 -45 24 -110 53
-142 65 -133 46 -175 49 -723 49 l-518 0 -61 -30z m1180 -648 c91 -56 151
-165 151 -272 0 -133 -102 -280 -230 -331 -54 -22 -74 -24 -303 -27 -135 -2
-259 -1 -277 3 l-33 6 0 278 c0 181 4 289 11 311 20 57 40 60 359 57 277 -2
286 -3 322 -25z"/>
<path d="M9864 7576 c-63 -29 -114 -79 -145 -142 l-24 -49 0 -1390 c0 -1336 1
-1391 19 -1425 36 -68 95 -117 195 -162 l96 -43 700 0 700 0 57 28 c103 51
155 145 146 265 -8 96 -67 222 -135 282 -90 81 -84 80 -613 80 -256 0 -475 3
-487 6 l-23 6 0 274 c0 150 4 284 10 298 20 53 39 56 407 56 199 0 353 4 375
10 113 32 191 134 191 252 0 52 -8 81 -39 153 -47 111 -104 172 -187 204 -55
20 -74 21 -408 21 l-350 0 3 295 c3 291 3 295 26 317 l23 23 497 5 c492 5 497
5 547 28 60 28 109 73 138 127 18 33 22 57 22 130 -1 82 -4 97 -37 166 -45 95
-94 151 -163 184 l-54 25 -718 0 -718 0 -51 -24z"/>
</g>
</svg>
